ISO-10303-21;
HEADER;
FILE_DESCRIPTION (( 'STEP AP214' ),
    '1' );
FILE_NAME ('AVTX-14.STEP',
    '2026-07-28T09:54:52',
    ( '' ),
    ( '' ),
    'SwSTEP 2.0',
    'SolidWorks 2024',
    '' );
FILE_SCHEMA (( 'AUTOMOTIVE_DESIGN' ));
ENDSEC;

DATA;
#1 = FILL_AREA_STYLE ('',( #633 ) ) ;
#2 = ORIENTED_EDGE ( 'NONE', *, *, #593, .F. ) ;
#3 = AXIS2_PLACEMENT_3D ( 'NONE', #259, #579, #393 ) ;
#4 = MECHANICAL_DESIGN_GEOMETRIC_PRESENTATION_REPRESENTATION (  '', ( #52 ), #371 ) ;
#5 = DIRECTION ( 'NONE',  ( 1.000000000000000000, 0.000000000000000000, 0.000000000000000000 ) ) ;
#6 = ORIENTED_EDGE ( 'NONE', *, *, #217, .F. ) ;
#7 = PRESENTATION_STYLE_ASSIGNMENT (( #822 ) ) ;
#8 = CARTESIAN_POINT ( 'NONE',  ( 0.6050000000000003153, 0.5549999999999999378, 0.6999999999999999556 ) ) ;
#9 = PLANE ( 'NONE',  #108 ) ;
#10 = FILL_AREA_STYLE ('',( #704 ) ) ;
#11 = PLANE ( 'NONE',  #789 ) ;
#12 = ORIENTED_EDGE ( 'NONE', *, *, #771, .T. ) ;
#13 =( NAMED_UNIT ( * ) SI_UNIT ( $, .STERADIAN. ) SOLID_ANGLE_UNIT ( ) );
#14 = FACE_OUTER_BOUND ( 'NONE', #425, .T. ) ;
#15 = ORIENTED_EDGE ( 'NONE', *, *, #134, .F. ) ;
#16 = LINE ( 'NONE', #273, #438 ) ;
#17 = SURFACE_STYLE_FILL_AREA ( #97 ) ;
#18 = PLANE ( 'NONE',  #328 ) ;
#19 = LINE ( 'NONE', #89, #215 ) ;
#20 = CARTESIAN_POINT ( 'NONE',  ( -0.7550000000000002265, 0.4049999999999999711, 0.8000000000000000444 ) ) ;
#21 = ADVANCED_FACE ( 'NONE', ( #251 ), #120, .F. ) ;
#22 = SURFACE_STYLE_USAGE ( .BOTH. , #296 ) ;
#23 = DIRECTION ( 'NONE',  ( -0.000000000000000000, 0.000000000000000000, 1.000000000000000000 ) ) ;
#24 =( LENGTH_UNIT ( ) NAMED_UNIT ( * ) SI_UNIT ( .MILLI., .METRE. ) );
#25 = UNCERTAINTY_MEASURE_WITH_UNIT (LENGTH_MEASURE( 1.000000000000000082E-05 ), #785, 'distance_accuracy_value', 'NONE');
#26 = SURFACE_STYLE_USAGE ( .BOTH. , #480 ) ;
#27 = DIRECTION ( 'NONE',  ( -0.000000000000000000, -0.000000000000000000, 1.000000000000000000 ) ) ;
#28 = SURFACE_STYLE_USAGE ( .BOTH. , #347 ) ;
#29 = PRESENTATION_LAYER_ASSIGNMENT (  '', '', ( #390 ) ) ;
#30 = LINE ( 'NONE', #468, #67 ) ;
#31 = EDGE_LOOP ( 'NONE', ( #615, #304 ) ) ;
#32 = DIRECTION ( 'NONE',  ( 1.000000000000000000, 0.000000000000000000, 0.000000000000000000 ) ) ;
#33 = CARTESIAN_POINT ( 'NONE',  ( -0.7550000000000002265, 0.5549999999999999378, 0.6999999999999999556 ) ) ;
#34 = CIRCLE ( 'NONE', #439, 0.1000000000000000472 ) ;
#35 = VERTEX_POINT ( 'NONE', #374 ) ;
#36 = FACE_OUTER_BOUND ( 'NONE', #446, .T. ) ;
#37 = CYLINDRICAL_SURFACE ( 'NONE', #824, 0.1499999999999999667 ) ;
#38 =( GEOMETRIC_REPRESENTATION_CONTEXT ( 3 ) GLOBAL_UNCERTAINTY_ASSIGNED_CONTEXT ( ( #326 ) ) GLOBAL_UNIT_ASSIGNED_CONTEXT ( ( #711, #772, #13 ) ) REPRESENTATION_CONTEXT ( 'NONE', 'WORKASPACE' ) );
#39 = CARTESIAN_POINT ( 'NONE',  ( -0.6050000000000003153, -0.5550000000000000488, 0.8000000000000000444 ) ) ;
#40 = CARTESIAN_POINT ( 'NONE',  ( -0.6050000000000003153, -0.4050000000000000822, 0.8000000000000000444 ) ) ;
#41 = PRODUCT_DEFINITION_FORMATION_WITH_SPECIFIED_SOURCE ( 'ANY', '', #447, .NOT_KNOWN. ) ;
#42 = ORIENTED_EDGE ( 'NONE', *, *, #773, .F. ) ;
#43 = ORIENTED_EDGE ( 'NONE', *, *, #199, .F. ) ;
#44 = DIRECTION ( 'NONE',  ( -1.000000000000000000, -0.000000000000000000, -0.000000000000000000 ) ) ;
#45 = CARTESIAN_POINT ( 'NONE',  ( -0.6800000000000002709, -0.4050000000000000822, 0.7900000000000000355 ) ) ;
#46 = DIRECTION ( 'NONE',  ( -0.000000000000000000, -0.000000000000000000, 1.000000000000000000 ) ) ;
#47 =( GEOMETRIC_REPRESENTATION_CONTEXT ( 3 ) GLOBAL_UNCERTAINTY_ASSIGNED_CONTEXT ( ( #308 ) ) GLOBAL_UNIT_ASSIGNED_CONTEXT ( ( #24, #230, #595 ) ) REPRESENTATION_CONTEXT ( 'NONE', 'WORKASPACE' ) );
#48 = EDGE_CURVE ( 'NONE', #530, #559, #191, .T. ) ;
#49 = ORIENTED_EDGE ( 'NONE', *, *, #503, .F. ) ;
#50 = CARTESIAN_POINT ( 'NONE',  ( 0.000000000000000000, 0.000000000000000000, 0.000000000000000000 ) ) ;
#51 = PRESENTATION_STYLE_ASSIGNMENT (( #619 ) ) ;
#52 = STYLED_ITEM ( 'NONE', ( #90 ), #537 ) ;
#53 = AXIS2_PLACEMENT_3D ( 'NONE', #72, #638, #136 ) ;
#54 = CIRCLE ( 'NONE', #471, 0.1499999999999999667 ) ;
#55 = CARTESIAN_POINT ( 'NONE',  ( -0.7250000000000000888, 0.6250000000000000000, 0.6999999999999999556 ) ) ;
#56 = ORIENTED_EDGE ( 'NONE', *, *, #507, .T. ) ;
#57 = LINE ( 'NONE', #311, #61 ) ;
#58 = ORIENTED_EDGE ( 'NONE', *, *, #564, .F. ) ;
#59 = CARTESIAN_POINT ( 'NONE',  ( -0.8249999999999998446, -0.5250000000000000222, 0.000000000000000000 ) ) ;
#60 = VERTEX_POINT ( 'NONE', #807 ) ;
#61 = VECTOR ( 'NONE', #613, 1000.000000000000000 ) ;
#62 = CARTESIAN_POINT ( 'NONE',  ( -0.8250000000000000666, 0.6250000000000000000, 0.6999999999999999556 ) ) ;
#63 = DIRECTION ( 'NONE',  ( 1.000000000000000000, 0.000000000000000000, 0.000000000000000000 ) ) ;
#64 = EDGE_CURVE ( 'NONE', #226, #437, #106, .T. ) ;
#65 =( NAMED_UNIT ( * ) SI_UNIT ( $, .STERADIAN. ) SOLID_ANGLE_UNIT ( ) );
#66 = ADVANCED_FACE ( 'NONE', ( #316 ), #563, .F. ) ;
#67 = VECTOR ( 'NONE', #659, 1000.000000000000000 ) ;
#68 = ORIENTED_EDGE ( 'NONE', *, *, #193, .T. ) ;
#69 = DIRECTION ( 'NONE',  ( 0.000000000000000000, -0.000000000000000000, 1.000000000000000000 ) ) ;
#70 = EDGE_CURVE ( 'NONE', #625, #473, #233, .T. ) ;
#71 = EDGE_LOOP ( 'NONE', ( #607, #118, #706, #634 ) ) ;
#72 = CARTESIAN_POINT ( 'NONE',  ( -0.6050000000000003153, -0.4050000000000000822, 0.7900000000000000355 ) ) ;
#73 = VECTOR ( 'NONE', #150, 1000.000000000000000 ) ;
#74 = DIRECTION ( 'NONE',  ( 1.000000000000000000, 0.000000000000000000, 0.000000000000000000 ) ) ;
#75 = AXIS2_PLACEMENT_3D ( 'NONE', #474, #220, #661 ) ;
#76 = CARTESIAN_POINT ( 'NONE',  ( -0.7550000000000002265, -0.5550000000000000488, 0.8000000000000000444 ) ) ;
#77 = EDGE_CURVE ( 'NONE', #530, #385, #366, .T. ) ;
#78 = AXIS2_PLACEMENT_3D ( 'NONE', #327, #141, #396 ) ;
#79 = CARTESIAN_POINT ( 'NONE',  ( 0.6050000000000002043, -0.4050000000000000822, 0.8000000000000000444 ) ) ;
#80 = EDGE_LOOP ( 'NONE', ( #492, #332, #246, #49 ) ) ;
#81 = SURFACE_STYLE_USAGE ( .BOTH. , #399 ) ;
#82 = ORIENTED_EDGE ( 'NONE', *, *, #103, .T. ) ;
#83 = PLANE ( 'NONE',  #248 ) ;
#84 = DIRECTION ( 'NONE',  ( 1.000000000000000000, 0.000000000000000000, 0.000000000000000000 ) ) ;
#85 = ORIENTED_EDGE ( 'NONE', *, *, #436, .F. ) ;
#86 = CARTESIAN_POINT ( 'NONE',  ( -0.7550000000000002265, 0.5549999999999999378, 0.8000000000000000444 ) ) ;
#87 =( LENGTH_UNIT ( ) NAMED_UNIT ( * ) SI_UNIT ( .MILLI., .METRE. ) );
#88 =( NAMED_UNIT ( * ) PLANE_ANGLE_UNIT ( ) SI_UNIT ( $, .RADIAN. ) );
#89 = CARTESIAN_POINT ( 'NONE',  ( -0.8250000000000000666, 0.6250000000000000000, 0.000000000000000000 ) ) ;
#90 = PRESENTATION_STYLE_ASSIGNMENT (( #26 ) ) ;
#91 = CARTESIAN_POINT ( 'NONE',  ( -0.6050000000000003153, 0.5549999999999999378, 0.6999999999999999556 ) ) ;
#92 = SURFACE_STYLE_USAGE ( .BOTH. , #679 ) ;
#93 = CARTESIAN_POINT ( 'NONE',  ( -0.6050000000000003153, -0.5550000000000000488, 0.6999999999999999556 ) ) ;
#94 = CARTESIAN_POINT ( 'NONE',  ( -0.8250000000000000666, 0.5250000000000000222, 0.6999999999999999556 ) ) ;
#95 = ORIENTED_EDGE ( 'NONE', *, *, #746, .T. ) ;
#96 = CYLINDRICAL_SURFACE ( 'NONE', #290, 0.07499999999999998335 ) ;
#97 = FILL_AREA_STYLE ('',( #151 ) ) ;
#98 = CYLINDRICAL_SURFACE ( 'NONE', #715, 0.1499999999999999667 ) ;
#99 = AXIS2_PLACEMENT_3D ( 'NONE', #491, #378, #303 ) ;
#100 =( NAMED_UNIT ( * ) PLANE_ANGLE_UNIT ( ) SI_UNIT ( $, .RADIAN. ) );
#101 = DIRECTION ( 'NONE',  ( 1.000000000000000000, 0.000000000000000000, 0.000000000000000000 ) ) ;
#102 = DIRECTION ( 'NONE',  ( 0.000000000000000000, -0.000000000000000000, -1.000000000000000000 ) ) ;
#103 = EDGE_CURVE ( 'NONE', #567, #559, #325, .T. ) ;
#104 = ORIENTED_EDGE ( 'NONE', *, *, #503, .T. ) ;
#105 = FILL_AREA_STYLE_COLOUR ( '', #192 ) ;
#106 = CIRCLE ( 'NONE', #560, 0.1499999999999999667 ) ;
#107 = CARTESIAN_POINT ( 'NONE',  ( -0.8250000000000000666, 0.6250000000000000000, 0.6999999999999999556 ) ) ;
#108 = AXIS2_PLACEMENT_3D ( 'NONE', #516, #768, #459 ) ;
#109 = DIRECTION ( 'NONE',  ( 0.000000000000000000, 0.000000000000000000, 1.000000000000000000 ) ) ;
#110 = CYLINDRICAL_SURFACE ( 'NONE', #456, 0.1000000000000000472 ) ;
#111 = ADVANCED_FACE ( 'NONE', ( #786 ), #96, .F. ) ;
#112 = ORIENTED_EDGE ( 'NONE', *, *, #632, .T. ) ;
#113 = ORIENTED_EDGE ( 'NONE', *, *, #318, .F. ) ;
#114 =( NAMED_UNIT ( * ) SI_UNIT ( $, .STERADIAN. ) SOLID_ANGLE_UNIT ( ) );
#115 = DIRECTION ( 'NONE',  ( 0.000000000000000000, -1.000000000000000000, 0.000000000000000000 ) ) ;
#116 = CARTESIAN_POINT ( 'NONE',  ( -0.6050000000000003153, 0.4049999999999999711, 0.8000000000000000444 ) ) ;
#117 = VECTOR ( 'NONE', #729, 1000.000000000000000 ) ;
#118 = ORIENTED_EDGE ( 'NONE', *, *, #660, .F. ) ;
#119 = EDGE_CURVE ( 'NONE', #530, #675, #34, .T. ) ;
#120 = CYLINDRICAL_SURFACE ( 'NONE', #460, 0.07499999999999998335 ) ;
#121 = VECTOR ( 'NONE', #27, 1000.000000000000000 ) ;
#122 = APPLICATION_PROTOCOL_DEFINITION ( 'draft international standard', 'automotive_design', 1998, #682 ) ;
#123 = DIRECTION ( 'NONE',  ( -0.000000000000000000, 0.000000000000000000, 1.000000000000000000 ) ) ;
#124 = ORIENTED_EDGE ( 'NONE', *, *, #510, .F. ) ;
#125 = ORIENTED_EDGE ( 'NONE', *, *, #139, .F. ) ;
#126 = CARTESIAN_POINT ( 'NONE',  ( -0.6050000000000003153, -0.4050000000000000822, 0.7900000000000000355 ) ) ;
#127 = VERTEX_POINT ( 'NONE', #424 ) ;
#128 = ADVANCED_FACE ( 'NONE', ( #295 ), #539, .F. ) ;
#129 = VERTEX_POINT ( 'NONE', #91 ) ;
#130 = EDGE_CURVE ( 'NONE', #286, #323, #282, .T. ) ;
#131 = COLOUR_RGB ( '',0.8509803921568627194, 0.8509803921568627194, 0.8509803921568627194 ) ;
#132 = FACE_BOUND ( 'NONE', #434, .T. ) ;
#133 = ORIENTED_EDGE ( 'NONE', *, *, #103, .F. ) ;
#134 = EDGE_CURVE ( 'NONE', #567, #580, #672, .T. ) ;
#135 = ORIENTED_EDGE ( 'NONE', *, *, #139, .T. ) ;
#136 = DIRECTION ( 'NONE',  ( 1.000000000000000000, 0.000000000000000000, 0.000000000000000000 ) ) ;
#137 = COLOUR_RGB ( '',0.2235294117647058654, 0.2274509803921568596, 0.3411764705882353033 ) ;
#138 = CARTESIAN_POINT ( 'NONE',  ( -0.8249999999999998446, -0.6250000000000000000, 0.6999999999999999556 ) ) ;
#139 = EDGE_CURVE ( 'NONE', #552, #450, #691, .T. ) ;
#140 = MECHANICAL_DESIGN_GEOMETRIC_PRESENTATION_REPRESENTATION (  '', ( #390 ), #334 ) ;
#141 = DIRECTION ( 'NONE',  ( -0.000000000000000000, 0.000000000000000000, 1.000000000000000000 ) ) ;
#142 = ORIENTED_EDGE ( 'NONE', *, *, #271, .F. ) ;
#143 = SURFACE_STYLE_USAGE ( .BOTH. , #329 ) ;
#144 = CARTESIAN_POINT ( 'NONE',  ( -0.6050000000000003153, -0.4050000000000000822, 0.7900000000000000355 ) ) ;
#145 = COLOUR_RGB ( '',0.9686274509803921573, 0.8784313725490195957, 0.5999999999999999778 ) ;
#146 = CARTESIAN_POINT ( 'NONE',  ( 0.8249999999999998446, 0.6250000000000000000, 0.000000000000000000 ) ) ;
#147 = CARTESIAN_POINT ( 'NONE',  ( 0.8249999999999998446, 0.6250000000000000000, 0.6999999999999999556 ) ) ;
#148 = STYLED_ITEM ( 'NONE', ( #176 ), #809 ) ;
#149 = ORIENTED_EDGE ( 'NONE', *, *, #618, .F. ) ;
#150 = DIRECTION ( 'NONE',  ( 0.000000000000000000, 0.000000000000000000, -1.000000000000000000 ) ) ;
#151 = FILL_AREA_STYLE_COLOUR ( '', #137 ) ;
#152 =( LENGTH_UNIT ( ) NAMED_UNIT ( * ) SI_UNIT ( .MILLI., .METRE. ) );
#153 = CARTESIAN_POINT ( 'NONE',  ( 0.6050000000000003153, 0.4049999999999999711, 0.8000000000000000444 ) ) ;
#154 = VECTOR ( 'NONE', #585, 1000.000000000000000 ) ;
#155 = CIRCLE ( 'NONE', #53, 0.07499999999999998335 ) ;
#156 = CARTESIAN_POINT ( 'NONE',  ( -0.6050000000000003153, -0.4050000000000000822, 0.8000000000000000444 ) ) ;
#157 = AXIS2_PLACEMENT_3D ( 'NONE', #544, #227, #730 ) ;
#158 = CYLINDRICAL_SURFACE ( 'NONE', #330, 0.1499999999999999667 ) ;
#159 = CARTESIAN_POINT ( 'NONE',  ( -0.7249999999999998668, -0.6250000000000000000, 0.6999999999999999556 ) ) ;
#160 = ORIENTED_EDGE ( 'NONE', *, *, #64, .T. ) ;
#161 = CARTESIAN_POINT ( 'NONE',  ( -0.8249999999999998446, -0.6250000000000000000, 0.6999999999999999556 ) ) ;
#162 = CARTESIAN_POINT ( 'NONE',  ( 0.8249999999999998446, 0.6250000000000000000, 0.000000000000000000 ) ) ;
#163 = SURFACE_STYLE_FILL_AREA ( #535 ) ;
#164 = UNCERTAINTY_MEASURE_WITH_UNIT (LENGTH_MEASURE( 1.000000000000000082E-05 ), #306, 'distance_accuracy_value', 'NONE');
#165 =( NAMED_UNIT ( * ) SI_UNIT ( $, .STERADIAN. ) SOLID_ANGLE_UNIT ( ) );
#166 = CARTESIAN_POINT ( 'NONE',  ( -0.6050000000000003153, -0.4050000000000000822, 0.8000000000000000444 ) ) ;
#167 = PRESENTATION_STYLE_ASSIGNMENT (( #92 ) ) ;
#168 = EDGE_CURVE ( 'NONE', #737, #675, #598, .T. ) ;
#169 = VERTEX_POINT ( 'NONE', #735 ) ;
#170 = SURFACE_SIDE_STYLE ('',( #163 ) ) ;
#171 = COLOUR_RGB ( '',0.9686274509803921573, 0.8784313725490195957, 0.5999999999999999778 ) ;
#172 = DIRECTION ( 'NONE',  ( -0.000000000000000000, 1.000000000000000000, -0.000000000000000000 ) ) ;
#173 = CARTESIAN_POINT ( 'NONE',  ( -0.8250000000000000666, 0.5250000000000000222, 0.000000000000000000 ) ) ;
#174 = EDGE_LOOP ( 'NONE', ( #756, #758, #627, #234, #700, #249, #484, #681 ) ) ;
#175 = VERTEX_POINT ( 'NONE', #39 ) ;
#176 = PRESENTATION_STYLE_ASSIGNMENT (( #777 ) ) ;
#177 = CARTESIAN_POINT ( 'NONE',  ( -0.7550000000000002265, 0.5549999999999999378, 0.6999999999999999556 ) ) ;
#178 = CARTESIAN_POINT ( 'NONE',  ( 0.8249999999999998446, 0.6250000000000000000, 0.000000000000000000 ) ) ;
#179 = EDGE_CURVE ( 'NONE', #235, #175, #54, .T. ) ;
#180 = EDGE_LOOP ( 'NONE', ( #211, #727, #82, #261 ) ) ;
#181 = CARTESIAN_POINT ( 'NONE',  ( 0.7550000000000001155, -0.4050000000000000822, 0.8000000000000000444 ) ) ;
#182 = DIRECTION ( 'NONE',  ( 0.000000000000000000, -0.000000000000000000, -1.000000000000000000 ) ) ;
#183 = VECTOR ( 'NONE', #172, 1000.000000000000000 ) ;
#184 = DIRECTION ( 'NONE',  ( -0.000000000000000000, -0.000000000000000000, 1.000000000000000000 ) ) ;
#185 = DIRECTION ( 'NONE',  ( 1.734723475976807094E-16, -1.000000000000000000, 0.000000000000000000 ) ) ;
#186 =( NAMED_UNIT ( * ) PLANE_ANGLE_UNIT ( ) SI_UNIT ( $, .RADIAN. ) );
#187 = VECTOR ( 'NONE', #667, 1000.000000000000000 ) ;
#188 = COLOUR_RGB ( '',0.9686274509803921573, 0.8784313725490195957, 0.5999999999999999778 ) ;
#189 = ORIENTED_EDGE ( 'NONE', *, *, #119, .T. ) ;
#190 = AXIS2_PLACEMENT_3D ( 'NONE', #50, #370, #804 ) ;
#191 = LINE ( 'NONE', #62, #709 ) ;
#192 = COLOUR_RGB ( '',0.9686274509803921573, 0.8784313725490195957, 0.5999999999999999778 ) ;
#193 = EDGE_CURVE ( 'NONE', #229, #450, #678, .T. ) ;
#194 = STYLED_ITEM ( 'NONE', ( #7 ), #285 ) ;
#195 = PRESENTATION_LAYER_ASSIGNMENT (  '', '', ( #449 ) ) ;
#196 = VERTEX_POINT ( 'NONE', #531 ) ;
#197 = SURFACE_STYLE_USAGE ( .BOTH. , #764 ) ;
#198 = ORIENTED_EDGE ( 'NONE', *, *, #499, .T. ) ;
#199 = EDGE_CURVE ( 'NONE', #229, #580, #221, .T. ) ;
#200 = CARTESIAN_POINT ( 'NONE',  ( 0.7550000000000001155, -0.4050000000000000822, 0.6999999999999999556 ) ) ;
#201 = FACE_OUTER_BOUND ( 'NONE', #555, .T. ) ;
#202 = DIRECTION ( 'NONE',  ( 1.734723475976807094E-16, -1.000000000000000000, 0.000000000000000000 ) ) ;
#203 = FACE_OUTER_BOUND ( 'NONE', #597, .T. ) ;
#204 = ORIENTED_EDGE ( 'NONE', *, *, #444, .T. ) ;
#205 =( GEOMETRIC_REPRESENTATION_CONTEXT ( 3 ) GLOBAL_UNCERTAINTY_ASSIGNED_CONTEXT ( ( #778 ) ) GLOBAL_UNIT_ASSIGNED_CONTEXT ( ( #407, #780, #469 ) ) REPRESENTATION_CONTEXT ( 'NONE', 'WORKASPACE' ) );
#206 = CARTESIAN_POINT ( 'NONE',  ( -0.6050000000000003153, 0.4049999999999999711, 0.6999999999999999556 ) ) ;
#207 = CARTESIAN_POINT ( 'NONE',  ( 0.6050000000000003153, 0.5549999999999999378, 0.8000000000000000444 ) ) ;
#208 = DIRECTION ( 'NONE',  ( -1.000000000000000000, -1.734723475976807094E-16, 0.000000000000000000 ) ) ;
#209 = STYLED_ITEM ( 'NONE', ( #269 ), #368 ) ;
#210 = ADVANCED_FACE ( 'NONE', ( #612 ), #302, .F. ) ;
#211 = ORIENTED_EDGE ( 'NONE', *, *, #740, .F. ) ;
#212 = LINE ( 'NONE', #86, #641 ) ;
#213 = FILL_AREA_STYLE ('',( #605 ) ) ;
#214 = FILL_AREA_STYLE_COLOUR ( '', #145 ) ;
#215 = VECTOR ( 'NONE', #274, 1000.000000000000000 ) ;
#216 = CIRCLE ( 'NONE', #365, 0.1000000000000000472 ) ;
#217 = EDGE_CURVE ( 'NONE', #323, #685, #721, .T. ) ;
#218 = FACE_OUTER_BOUND ( 'NONE', #31, .T. ) ;
#219 = CARTESIAN_POINT ( 'NONE',  ( -0.8249999999999998446, -0.5250000000000000222, 0.6999999999999999556 ) ) ;
#220 = DIRECTION ( 'NONE',  ( 1.000000000000000000, 1.734723475976807094E-16, -0.000000000000000000 ) ) ;
#221 = CIRCLE ( 'NONE', #505, 0.1000000000000000472 ) ;
#222 = COLOUR_RGB ( '',0.9686274509803921573, 0.8784313725490195957, 0.5999999999999999778 ) ;
#223 = CYLINDRICAL_SURFACE ( 'NONE', #252, 0.1499999999999999667 ) ;
#224 = ADVANCED_FACE ( 'NONE', ( #14 ), #513, .F. ) ;
#225 = LINE ( 'NONE', #348, #289 ) ;
#226 = VERTEX_POINT ( 'NONE', #769 ) ;
#227 = DIRECTION ( 'NONE',  ( -0.000000000000000000, -0.000000000000000000, 1.000000000000000000 ) ) ;
#228 = LINE ( 'NONE', #33, #117 ) ;
#229 = VERTEX_POINT ( 'NONE', #451 ) ;
#230 =( NAMED_UNIT ( * ) PLANE_ANGLE_UNIT ( ) SI_UNIT ( $, .RADIAN. ) );
#231 = UNCERTAINTY_MEASURE_WITH_UNIT (LENGTH_MEASURE( 1.000000000000000082E-05 ), #152, 'distance_accuracy_value', 'NONE');
#232 = DIRECTION ( 'NONE',  ( -0.000000000000000000, -0.000000000000000000, 1.000000000000000000 ) ) ;
#233 = LINE ( 'NONE', #177, #395 ) ;
#234 = ORIENTED_EDGE ( 'NONE', *, *, #618, .T. ) ;
#235 = VERTEX_POINT ( 'NONE', #254 ) ;
#236 = FACE_OUTER_BOUND ( 'NONE', #180, .T. ) ;
#237 = DIRECTION ( 'NONE',  ( -0.000000000000000000, -0.000000000000000000, 1.000000000000000000 ) ) ;
#238 = FACE_OUTER_BOUND ( 'NONE', #765, .T. ) ;
#239 = ORIENTED_EDGE ( 'NONE', *, *, #658, .T. ) ;
#240 = PRODUCT_CONTEXT ( 'NONE', #276, 'mechanical' ) ;
#241 = CARTESIAN_POINT ( 'NONE',  ( -0.8250000000000000666, 0.6250000000000000000, 0.6999999999999999556 ) ) ;
#242 = FILL_AREA_STYLE ('',( #367 ) ) ;
#243 = ORIENTED_EDGE ( 'NONE', *, *, #549, .F. ) ;
#244 = CIRCLE ( 'NONE', #783, 0.07499999999999998335 ) ;
#245 = DIRECTION ( 'NONE',  ( 1.000000000000000000, 0.000000000000000000, 0.000000000000000000 ) ) ;
#246 = ORIENTED_EDGE ( 'NONE', *, *, #669, .F. ) ;
#247 = ORIENTED_EDGE ( 'NONE', *, *, #573, .F. ) ;
#248 = AXIS2_PLACEMENT_3D ( 'NONE', #138, #635, #391 ) ;
#249 = ORIENTED_EDGE ( 'NONE', *, *, #256, .T. ) ;
#250 = EDGE_CURVE ( 'NONE', #385, #818, #701, .T. ) ;
#251 = FACE_OUTER_BOUND ( 'NONE', #364, .T. ) ;
#252 = AXIS2_PLACEMENT_3D ( 'NONE', #153, #280, #784 ) ;
#253 = CIRCLE ( 'NONE', #748, 0.1499999999999999667 ) ;
#254 = CARTESIAN_POINT ( 'NONE',  ( -0.7550000000000002265, -0.4050000000000000822, 0.8000000000000000444 ) ) ;
#255 = CIRCLE ( 'NONE', #394, 0.1000000000000000472 ) ;
#256 = EDGE_CURVE ( 'NONE', #625, #129, #620, .T. ) ;
#257 = VECTOR ( 'NONE', #202, 1000.000000000000000 ) ;
#258 = ORIENTED_EDGE ( 'NONE', *, *, #48, .F. ) ;
#259 = CARTESIAN_POINT ( 'NONE',  ( 0.000000000000000000, 0.000000000000000000, 0.000000000000000000 ) ) ;
#260 = AXIS2_PLACEMENT_3D ( 'NONE', #345, #109, #604 ) ;
#261 = ORIENTED_EDGE ( 'NONE', *, *, #805, .F. ) ;
#262 = CYLINDRICAL_SURFACE ( 'NONE', #570, 0.1000000000000000472 ) ;
#263 = DIRECTION ( 'NONE',  ( 0.000000000000000000, -0.000000000000000000, -1.000000000000000000 ) ) ;
#264 = DIRECTION ( 'NONE',  ( 1.000000000000000000, 0.000000000000000000, 0.000000000000000000 ) ) ;
#265 = ORIENTED_EDGE ( 'NONE', *, *, #168, .T. ) ;
#266 = LINE ( 'NONE', #278, #533 ) ;
#267 =( LENGTH_UNIT ( ) NAMED_UNIT ( * ) SI_UNIT ( .MILLI., .METRE. ) );
#268 = VECTOR ( 'NONE', #806, 1000.000000000000000 ) ;
#269 = PRESENTATION_STYLE_ASSIGNMENT (( #81 ) ) ;
#270 = DIRECTION ( 'NONE',  ( 0.000000000000000000, -0.000000000000000000, 1.000000000000000000 ) ) ;
#271 = EDGE_CURVE ( 'NONE', #298, #286, #155, .T. ) ;
#272 = ORIENTED_EDGE ( 'NONE', *, *, #444, .F. ) ;
#273 = CARTESIAN_POINT ( 'NONE',  ( -0.7550000000000002265, -0.4050000000000000822, 0.8000000000000000444 ) ) ;
#274 = DIRECTION ( 'NONE',  ( -1.000000000000000000, -0.000000000000000000, -0.000000000000000000 ) ) ;
#275 = EDGE_CURVE ( 'NONE', #286, #298, #762, .T. ) ;
#276 = APPLICATION_CONTEXT ( 'automotive_design' ) ;
#277 = DIRECTION ( 'NONE',  ( 0.000000000000000000, -1.000000000000000000, 0.000000000000000000 ) ) ;
#278 = CARTESIAN_POINT ( 'NONE',  ( -0.7550000000000002265, 0.5549999999999999378, 0.8000000000000000444 ) ) ;
#279 = EDGE_CURVE ( 'NONE', #693, #35, #501, .T. ) ;
#280 = DIRECTION ( 'NONE',  ( 0.000000000000000000, 0.000000000000000000, -1.000000000000000000 ) ) ;
#281 = VECTOR ( 'NONE', #655, 1000.000000000000000 ) ;
#282 = LINE ( 'NONE', #45, #755 ) ;
#283 = CARTESIAN_POINT ( 'NONE',  ( -0.7550000000000002265, 0.4049999999999999711, 0.6999999999999999556 ) ) ;
#284 = PRESENTATION_LAYER_ASSIGNMENT (  '', '', ( #673 ) ) ;
#285 = ADVANCED_FACE ( 'NONE', ( #509 ), #708, .F. ) ;
#286 = VERTEX_POINT ( 'NONE', #445 ) ;
#287 = CARTESIAN_POINT ( 'NONE',  ( 0.8249999999999998446, 0.6250000000000000000, 0.6999999999999999556 ) ) ;
#288 = DIRECTION ( 'NONE',  ( 0.000000000000000000, -0.000000000000000000, -1.000000000000000000 ) ) ;
#289 = VECTOR ( 'NONE', #665, 1000.000000000000000 ) ;
#290 = AXIS2_PLACEMENT_3D ( 'NONE', #591, #237, #32 ) ;
#291 = ORIENTED_EDGE ( 'NONE', *, *, #583, .T. ) ;
#292 = PRESENTATION_LAYER_ASSIGNMENT (  '', '', ( #497 ) ) ;
#293 = CARTESIAN_POINT ( 'NONE',  ( -0.6050000000000003153, 0.4049999999999999711, 0.8000000000000000444 ) ) ;
#294 = FILL_AREA_STYLE ('',( #476 ) ) ;
#295 = FACE_OUTER_BOUND ( 'NONE', #763, .T. ) ;
#296 = SURFACE_SIDE_STYLE ('',( #482 ) ) ;
#297 =( GEOMETRIC_REPRESENTATION_CONTEXT ( 3 ) GLOBAL_UNCERTAINTY_ASSIGNED_CONTEXT ( ( #733 ) ) GLOBAL_UNIT_ASSIGNED_CONTEXT ( ( #300, #744, #114 ) ) REPRESENTATION_CONTEXT ( 'NONE', 'WORKASPACE' ) );
#298 = VERTEX_POINT ( 'NONE', #696 ) ;
#299 = ORIENTED_EDGE ( 'NONE', *, *, #726, .T. ) ;
#300 =( LENGTH_UNIT ( ) NAMED_UNIT ( * ) SI_UNIT ( .MILLI., .METRE. ) );
#301 = AXIS2_PLACEMENT_3D ( 'NONE', #676, #417, #339 ) ;
#302 = CYLINDRICAL_SURFACE ( 'NONE', #157, 0.1000000000000000472 ) ;
#303 = DIRECTION ( 'NONE',  ( 1.000000000000000000, 0.000000000000000000, 0.000000000000000000 ) ) ;
#304 = ORIENTED_EDGE ( 'NONE', *, *, #275, .T. ) ;
#305 = AXIS2_PLACEMENT_3D ( 'NONE', #144, #648, #389 ) ;
#306 =( LENGTH_UNIT ( ) NAMED_UNIT ( * ) SI_UNIT ( .MILLI., .METRE. ) );
#307 = ORIENTED_EDGE ( 'NONE', *, *, #130, .F. ) ;
#308 = UNCERTAINTY_MEASURE_WITH_UNIT (LENGTH_MEASURE( 1.000000000000000082E-05 ), #24, 'distance_accuracy_value', 'NONE');
#309 = CARTESIAN_POINT ( 'NONE',  ( 0.7249999999999998668, 0.6250000000000000000, 0.000000000000000000 ) ) ;
#310 = EDGE_LOOP ( 'NONE', ( #534, #95, #743, #571, #442, #358, #558, #160 ) ) ;
#311 = CARTESIAN_POINT ( 'NONE',  ( 0.7250000000000000888, -0.6250000000000000000, 0.000000000000000000 ) ) ;
#312 = ORIENTED_EDGE ( 'NONE', *, *, #275, .F. ) ;
#313 = ADVANCED_FACE ( 'NONE', ( #132, #320 ), #454, .T. ) ;
#314 = EDGE_LOOP ( 'NONE', ( #479, #431, #149, #243 ) ) ;
#315 = AXIS2_PLACEMENT_3D ( 'NONE', #241, #747, #182 ) ;
#316 = FACE_OUTER_BOUND ( 'NONE', #561, .T. ) ;
#317 = DIRECTION ( 'NONE',  ( 1.000000000000000000, 0.000000000000000000, 0.000000000000000000 ) ) ;
#318 = EDGE_CURVE ( 'NONE', #437, #405, #266, .T. ) ;
#319 = AXIS2_PLACEMENT_3D ( 'NONE', #337, #102, #356 ) ;
#320 = FACE_OUTER_BOUND ( 'NONE', #310, .T. ) ;
#321 = EDGE_LOOP ( 'NONE', ( #291, #820, #58, #799 ) ) ;
#322 = FACE_OUTER_BOUND ( 'NONE', #80, .T. ) ;
#323 = VERTEX_POINT ( 'NONE', #587 ) ;
#324 = SURFACE_STYLE_FILL_AREA ( #1 ) ;
#325 = CIRCLE ( 'NONE', #529, 0.1000000000000000472 ) ;
#326 = UNCERTAINTY_MEASURE_WITH_UNIT (LENGTH_MEASURE( 1.000000000000000082E-05 ), #711, 'distance_accuracy_value', 'NONE');
#327 = CARTESIAN_POINT ( 'NONE',  ( 0.000000000000000000, 0.000000000000000000, 0.6999999999999999556 ) ) ;
#328 = AXIS2_PLACEMENT_3D ( 'NONE', #147, #208, #720 ) ;
#329 = SURFACE_SIDE_STYLE ('',( #657 ) ) ;
#330 = AXIS2_PLACEMENT_3D ( 'NONE', #376, #440, #553 ) ;
#331 = CARTESIAN_POINT ( 'NONE',  ( -0.7550000000000002265, 0.4049999999999999711, 0.8000000000000000444 ) ) ;
#332 = ORIENTED_EDGE ( 'NONE', *, *, #726, .F. ) ;
#333 = FILL_AREA_STYLE ('',( #462 ) ) ;
#334 =( GEOMETRIC_REPRESENTATION_CONTEXT ( 3 ) GLOBAL_UNCERTAINTY_ASSIGNED_CONTEXT ( ( #164 ) ) GLOBAL_UNIT_ASSIGNED_CONTEXT ( ( #306, #433, #584 ) ) REPRESENTATION_CONTEXT ( 'NONE', 'WORKASPACE' ) );
#335 = ORIENTED_EDGE ( 'NONE', *, *, #401, .T. ) ;
#336 = CARTESIAN_POINT ( 'NONE',  ( 0.8249999999999998446, 0.5250000000000000222, 0.6999999999999999556 ) ) ;
#337 = CARTESIAN_POINT ( 'NONE',  ( 0.6050000000000002043, -0.4050000000000000822, 0.6999999999999999556 ) ) ;
#338 = ADVANCED_FACE ( 'NONE', ( #703 ), #18, .F. ) ;
#339 = DIRECTION ( 'NONE',  ( 1.000000000000000000, 0.000000000000000000, 0.000000000000000000 ) ) ;
#340 = ORIENTED_EDGE ( 'NONE', *, *, #573, .T. ) ;
#341 = LINE ( 'NONE', #518, #154 ) ;
#342 = PRESENTATION_STYLE_ASSIGNMENT (( #143 ) ) ;
#343 = DIRECTION ( 'NONE',  ( 0.000000000000000000, 0.000000000000000000, -1.000000000000000000 ) ) ;
#344 = LINE ( 'NONE', #725, #753 ) ;
#345 = CARTESIAN_POINT ( 'NONE',  ( 0.8249999999999998446, 0.6250000000000000000, 0.6999999999999999556 ) ) ;
#346 = FACE_OUTER_BOUND ( 'NONE', #321, .T. ) ;
#347 = SURFACE_SIDE_STYLE ('',( #359 ) ) ;
#348 = CARTESIAN_POINT ( 'NONE',  ( 0.8250000000000000666, -0.5250000000000000222, 0.000000000000000000 ) ) ;
#349 = ORIENTED_EDGE ( 'NONE', *, *, #279, .F. ) ;
#350 = DIRECTION ( 'NONE',  ( 0.000000000000000000, 0.000000000000000000, 1.000000000000000000 ) ) ;
#351 = CARTESIAN_POINT ( 'NONE',  ( 0.6050000000000003153, -0.5550000000000000488, 0.8000000000000000444 ) ) ;
#352 = CIRCLE ( 'NONE', #556, 0.1499999999999999667 ) ;
#353 = DIRECTION ( 'NONE',  ( 0.000000000000000000, -0.000000000000000000, -1.000000000000000000 ) ) ;
#354 = UNCERTAINTY_MEASURE_WITH_UNIT (LENGTH_MEASURE( 1.000000000000000082E-05 ), #267, 'distance_accuracy_value', 'NONE');
#355 = CARTESIAN_POINT ( 'NONE',  ( -0.6050000000000003153, -0.4050000000000000822, 0.8000000000000000444 ) ) ;
#356 = DIRECTION ( 'NONE',  ( 1.000000000000000000, 0.000000000000000000, 0.000000000000000000 ) ) ;
#357 = CLOSED_SHELL ( 'NONE', ( #21, #338, #66, #128, #373, #381, #224, #668, #362, #368, #285, #313, #760, #809, #813, #537, #210, #697, #430, #800, #111, #812 ) ) ;
#358 = ORIENTED_EDGE ( 'NONE', *, *, #465, .T. ) ;
#359 = SURFACE_STYLE_FILL_AREA ( #739 ) ;
#360 = CARTESIAN_POINT ( 'NONE',  ( 0.7250000000000000888, -0.6250000000000000000, 0.6999999999999999556 ) ) ;
#361 = DIRECTION ( 'NONE',  ( 0.000000000000000000, 0.000000000000000000, 1.000000000000000000 ) ) ;
#362 = ADVANCED_FACE ( 'NONE', ( #201 ), #9, .F. ) ;
#363 = ORIENTED_EDGE ( 'NONE', *, *, #593, .T. ) ;
#364 = EDGE_LOOP ( 'NONE', ( #312, #506, #698, #512 ) ) ;
#365 = AXIS2_PLACEMENT_3D ( 'NONE', #674, #586, #796 ) ;
#366 = LINE ( 'NONE', #173, #643 ) ;
#367 = FILL_AREA_STYLE_COLOUR ( '', #171 ) ;
#368 = ADVANCED_FACE ( 'NONE', ( #520 ), #11, .F. ) ;
#369 = EDGE_LOOP ( 'NONE', ( #775, #104, #398, #198 ) ) ;
#370 = DIRECTION ( 'NONE',  ( 0.000000000000000000, 0.000000000000000000, 1.000000000000000000 ) ) ;
#371 =( GEOMETRIC_REPRESENTATION_CONTEXT ( 3 ) GLOBAL_UNCERTAINTY_ASSIGNED_CONTEXT ( ( #25 ) ) GLOBAL_UNIT_ASSIGNED_CONTEXT ( ( #785, #100, #165 ) ) REPRESENTATION_CONTEXT ( 'NONE', 'WORKASPACE' ) );
#372 = DIRECTION ( 'NONE',  ( -0.000000000000000000, -0.000000000000000000, 1.000000000000000000 ) ) ;
#373 = ADVANCED_FACE ( 'NONE', ( #203 ), #83, .F. ) ;
#374 = CARTESIAN_POINT ( 'NONE',  ( 0.7250000000000000888, -0.6250000000000000000, 0.000000000000000000 ) ) ;
#375 = PRESENTATION_LAYER_ASSIGNMENT (  '', '', ( #52 ) ) ;
#376 = CARTESIAN_POINT ( 'NONE',  ( 0.6050000000000002043, -0.4050000000000000822, 0.8000000000000000444 ) ) ;
#377 = PRODUCT_DEFINITION ( 'UNKNOWN', '', #41, #649 ) ;
#378 = DIRECTION ( 'NONE',  ( 0.000000000000000000, 0.000000000000000000, 1.000000000000000000 ) ) ;
#379 = ORIENTED_EDGE ( 'NONE', *, *, #436, .T. ) ;
#380 = EDGE_CURVE ( 'NONE', #437, #463, #461, .T. ) ;
#381 = ADVANCED_FACE ( 'NONE', ( #457, #640 ), #770, .T. ) ;
#382 = ORIENTED_EDGE ( 'NONE', *, *, #168, .F. ) ;
#383 = DIRECTION ( 'NONE',  ( -0.000000000000000000, 0.000000000000000000, 1.000000000000000000 ) ) ;
#384 = CARTESIAN_POINT ( 'NONE',  ( -0.8250000000000000666, 0.6250000000000000000, 0.000000000000000000 ) ) ;
#385 = VERTEX_POINT ( 'NONE', #654 ) ;
#386 = DIRECTION ( 'NONE',  ( 0.000000000000000000, 0.000000000000000000, -1.000000000000000000 ) ) ;
#387 = PRESENTATION_LAYER_ASSIGNMENT (  '', '', ( #702 ) ) ;
#388 = ORIENTED_EDGE ( 'NONE', *, *, #632, .F. ) ;
#389 = DIRECTION ( 'NONE',  ( 1.000000000000000000, 0.000000000000000000, 0.000000000000000000 ) ) ;
#390 = STYLED_ITEM ( 'NONE', ( #51 ), #760 ) ;
#391 = DIRECTION ( 'NONE',  ( 0.000000000000000000, -0.000000000000000000, 1.000000000000000000 ) ) ;
#392 = CARTESIAN_POINT ( 'NONE',  ( 0.000000000000000000, 0.000000000000000000, 0.8000000000000000444 ) ) ;
#393 = DIRECTION ( 'NONE',  ( 1.000000000000000000, 0.000000000000000000, 0.000000000000000000 ) ) ;
#394 = AXIS2_PLACEMENT_3D ( 'NONE', #146, #403, #74 ) ;
#395 = VECTOR ( 'NONE', #115, 1000.000000000000000 ) ;
#396 = DIRECTION ( 'NONE',  ( 1.000000000000000000, 0.000000000000000000, 0.000000000000000000 ) ) ;
#397 =( GEOMETRIC_REPRESENTATION_CONTEXT ( 3 ) GLOBAL_UNCERTAINTY_ASSIGNED_CONTEXT ( ( #231 ) ) GLOBAL_UNIT_ASSIGNED_CONTEXT ( ( #152, #88, #575 ) ) REPRESENTATION_CONTEXT ( 'NONE', 'WORKASPACE' ) );
#398 = ORIENTED_EDGE ( 'NONE', *, *, #600, .T. ) ;
#399 = SURFACE_SIDE_STYLE ('',( #716 ) ) ;
#400 =( NAMED_UNIT ( * ) PLANE_ANGLE_UNIT ( ) SI_UNIT ( $, .RADIAN. ) );
#401 = EDGE_CURVE ( 'NONE', #473, #235, #16, .T. ) ;
#402 = ORIENTED_EDGE ( 'NONE', *, *, #279, .T. ) ;
#403 = DIRECTION ( 'NONE',  ( 0.000000000000000000, 0.000000000000000000, 1.000000000000000000 ) ) ;
#404 = EDGE_CURVE ( 'NONE', #767, #127, #341, .T. ) ;
#405 = VERTEX_POINT ( 'NONE', #713 ) ;
#406 = LINE ( 'NONE', #20, #689 ) ;
#407 =( LENGTH_UNIT ( ) NAMED_UNIT ( * ) SI_UNIT ( .MILLI., .METRE. ) );
#408 = CARTESIAN_POINT ( 'NONE',  ( 0.7550000000000001155, 0.5549999999999999378, 0.6999999999999999556 ) ) ;
#409 = VECTOR ( 'NONE', #576, 1000.000000000000000 ) ;
#410 = EDGE_CURVE ( 'NONE', #817, #426, #511, .T. ) ;
#411 = CARTESIAN_POINT ( 'NONE',  ( 0.7249999999999998668, 0.6250000000000000000, 0.6999999999999999556 ) ) ;
#412 = DIRECTION ( 'NONE',  ( 0.000000000000000000, 0.000000000000000000, -1.000000000000000000 ) ) ;
#413 = CARTESIAN_POINT ( 'NONE',  ( -0.7550000000000002265, -0.5550000000000000488, 0.8000000000000000444 ) ) ;
#414 = ORIENTED_EDGE ( 'NONE', *, *, #805, .T. ) ;
#415 = DIRECTION ( 'NONE',  ( 1.000000000000000000, 0.000000000000000000, 0.000000000000000000 ) ) ;
#416 = DIRECTION ( 'NONE',  ( -0.000000000000000000, -0.000000000000000000, 1.000000000000000000 ) ) ;
#417 = DIRECTION ( 'NONE',  ( -0.000000000000000000, -0.000000000000000000, 1.000000000000000000 ) ) ;
#418 = DIRECTION ( 'NONE',  ( 1.000000000000000000, 0.000000000000000000, 0.000000000000000000 ) ) ;
#419 = DIRECTION ( 'NONE',  ( -0.000000000000000000, 1.000000000000000000, -0.000000000000000000 ) ) ;
#420 = CIRCLE ( 'NONE', #514, 0.1000000000000000472 ) ;
#421 = ORIENTED_EDGE ( 'NONE', *, *, #77, .T. ) ;
#422 = CARTESIAN_POINT ( 'NONE',  ( -0.6050000000000003153, -0.4050000000000000822, 0.7900000000000000355 ) ) ;
#423 = LINE ( 'NONE', #107, #565 ) ;
#424 = CARTESIAN_POINT ( 'NONE',  ( 0.6050000000000003153, -0.5550000000000000488, 0.6999999999999999556 ) ) ;
#425 = EDGE_LOOP ( 'NONE', ( #349, #498, #495, #112, #546, #204, #614, #803 ) ) ;
#426 = VERTEX_POINT ( 'NONE', #200 ) ;
#427 = FACE_OUTER_BOUND ( 'NONE', #71, .T. ) ;
#428 = DIRECTION ( 'NONE',  ( 0.000000000000000000, 0.000000000000000000, 1.000000000000000000 ) ) ;
#429 = SURFACE_SIDE_STYLE ('',( #742 ) ) ;
#430 = ADVANCED_FACE ( 'NONE', ( #322 ), #262, .F. ) ;
#431 = ORIENTED_EDGE ( 'NONE', *, *, #401, .F. ) ;
#432 = VECTOR ( 'NONE', #540, 1000.000000000000000 ) ;
#433 =( NAMED_UNIT ( * ) PLANE_ANGLE_UNIT ( ) SI_UNIT ( $, .RADIAN. ) );
#434 = EDGE_LOOP ( 'NONE', ( #2, #6 ) ) ;
#435 = FACE_OUTER_BOUND ( 'NONE', #630, .T. ) ;
#436 = EDGE_CURVE ( 'NONE', #483, #625, #406, .T. ) ;
#437 = VERTEX_POINT ( 'NONE', #453 ) ;
#438 = VECTOR ( 'NONE', #69, 1000.000000000000000 ) ;
#439 = AXIS2_PLACEMENT_3D ( 'NONE', #683, #350, #525 ) ;
#440 = DIRECTION ( 'NONE',  ( 0.000000000000000000, 0.000000000000000000, -1.000000000000000000 ) ) ;
#441 = VECTOR ( 'NONE', #386, 1000.000000000000000 ) ;
#442 = ORIENTED_EDGE ( 'NONE', *, *, #510, .T. ) ;
#443 = ORIENTED_EDGE ( 'NONE', *, *, #134, .T. ) ;
#444 = EDGE_CURVE ( 'NONE', #196, #169, #255, .T. ) ;
#445 = CARTESIAN_POINT ( 'NONE',  ( -0.6800000000000002709, -0.4050000000000000822, 0.7900000000000000355 ) ) ;
#446 = EDGE_LOOP ( 'NONE', ( #490, #732, #42, #688 ) ) ;
#447 = PRODUCT ( 'AVTX-14', 'AVTX-14', '', ( #240 ) ) ;
#448 = DIRECTION ( 'NONE',  ( -0.000000000000000000, 0.000000000000000000, -1.000000000000000000 ) ) ;
#449 = STYLED_ITEM ( 'NONE', ( #623 ), #313 ) ;
#450 = VERTEX_POINT ( 'NONE', #336 ) ;
#451 = CARTESIAN_POINT ( 'NONE',  ( 0.8250000000000000666, -0.5250000000000000222, 0.6999999999999999556 ) ) ;
#452 = EDGE_CURVE ( 'NONE', #483, #235, #212, .T. ) ;
#453 = CARTESIAN_POINT ( 'NONE',  ( 0.6050000000000003153, 0.5549999999999999378, 0.8000000000000000444 ) ) ;
#454 = PLANE ( 'NONE',  #562 ) ;
#455 = DIRECTION ( 'NONE',  ( 0.000000000000000000, 1.000000000000000000, 0.000000000000000000 ) ) ;
#456 = AXIS2_PLACEMENT_3D ( 'NONE', #178, #46, #489 ) ;
#457 = FACE_OUTER_BOUND ( 'NONE', #631, .T. ) ;
#458 = ORIENTED_EDGE ( 'NONE', *, *, #714, .F. ) ;
#459 = DIRECTION ( 'NONE',  ( 0.000000000000000000, -0.000000000000000000, -1.000000000000000000 ) ) ;
#460 = AXIS2_PLACEMENT_3D ( 'NONE', #126, #550, #821 ) ;
#461 = LINE ( 'NONE', #207, #441 ) ;
#462 = FILL_AREA_STYLE_COLOUR ( '', #188 ) ;
#463 = VERTEX_POINT ( 'NONE', #8 ) ;
#464 = LINE ( 'NONE', #351, #523 ) ;
#465 = EDGE_CURVE ( 'NONE', #60, #817, #788, .T. ) ;
#466 = VECTOR ( 'NONE', #723, 1000.000000000000000 ) ;
#467 =( GEOMETRIC_REPRESENTATION_CONTEXT ( 3 ) GLOBAL_UNCERTAINTY_ASSIGNED_CONTEXT ( ( #724 ) ) GLOBAL_UNIT_ASSIGNED_CONTEXT ( ( #87, #526, #599 ) ) REPRESENTATION_CONTEXT ( 'NONE', 'WORKASPACE' ) );
#468 = CARTESIAN_POINT ( 'NONE',  ( -0.6050000000000003153, -0.5550000000000000488, 0.8000000000000000444 ) ) ;
#469 =( NAMED_UNIT ( * ) SI_UNIT ( $, .STERADIAN. ) SOLID_ANGLE_UNIT ( ) );
#470 = DIRECTION ( 'NONE',  ( 0.000000000000000000, 0.000000000000000000, 1.000000000000000000 ) ) ;
#471 = AXIS2_PLACEMENT_3D ( 'NONE', #355, #728, #101 ) ;
#472 = DIRECTION ( 'NONE',  ( -0.000000000000000000, 0.000000000000000000, -1.000000000000000000 ) ) ;
#473 = VERTEX_POINT ( 'NONE', #645 ) ;
#474 = CARTESIAN_POINT ( 'NONE',  ( -0.8250000000000000666, 0.6250000000000000000, 0.6999999999999999556 ) ) ;
#475 = CARTESIAN_POINT ( 'NONE',  ( -0.8249999999999998446, -0.5250000000000000222, 0.000000000000000000 ) ) ;
#476 = FILL_AREA_STYLE_COLOUR ( '', #502 ) ;
#477 = CARTESIAN_POINT ( 'NONE',  ( 0.8250000000000000666, -0.6250000000000000000, 0.6999999999999999556 ) ) ;
#478 = DIRECTION ( 'NONE',  ( 1.000000000000000000, 0.000000000000000000, 0.000000000000000000 ) ) ;
#479 = ORIENTED_EDGE ( 'NONE', *, *, #179, .F. ) ;
#480 = SURFACE_SIDE_STYLE ('',( #671 ) ) ;
#481 = CARTESIAN_POINT ( 'NONE',  ( -0.7250000000000000888, 0.6250000000000000000, 0.000000000000000000 ) ) ;
#482 = SURFACE_STYLE_FILL_AREA ( #213 ) ;
#483 = VERTEX_POINT ( 'NONE', #331 ) ;
#484 = ORIENTED_EDGE ( 'NONE', *, *, #589, .F. ) ;
#485 = CYLINDRICAL_SURFACE ( 'NONE', #301, 0.1000000000000000472 ) ;
#486 = DIRECTION ( 'NONE',  ( -1.734723475976807094E-16, 1.000000000000000000, -0.000000000000000000 ) ) ;
#487 = ORIENTED_EDGE ( 'NONE', *, *, #48, .T. ) ;
#488 = AXIS2_PLACEMENT_3D ( 'NONE', #76, #455, #270 ) ;
#489 = DIRECTION ( 'NONE',  ( 1.000000000000000000, 0.000000000000000000, 0.000000000000000000 ) ) ;
#490 = ORIENTED_EDGE ( 'NONE', *, *, #64, .F. ) ;
#491 = CARTESIAN_POINT ( 'NONE',  ( 0.8250000000000000666, -0.6250000000000000000, 0.000000000000000000 ) ) ;
#492 = ORIENTED_EDGE ( 'NONE', *, *, #199, .T. ) ;
#493 = VECTOR ( 'NONE', #372, 1000.000000000000000 ) ;
#494 = LINE ( 'NONE', #754, #493 ) ;
#495 = ORIENTED_EDGE ( 'NONE', *, *, #250, .F. ) ;
#496 =( NAMED_UNIT ( * ) SI_UNIT ( $, .STERADIAN. ) SOLID_ANGLE_UNIT ( ) );
#497 = STYLED_ITEM ( 'NONE', ( #342 ), #362 ) ;
#498 = ORIENTED_EDGE ( 'NONE', *, *, #740, .T. ) ;
#499 = EDGE_CURVE ( 'NONE', #169, #450, #577, .T. ) ;
#500 = AXIS2_PLACEMENT_3D ( 'NONE', #422, #470, #670 ) ;
#501 = LINE ( 'NONE', #761, #409 ) ;
#502 = COLOUR_RGB ( '',0.9686274509803921573, 0.8784313725490195957, 0.5999999999999999778 ) ;
#503 = EDGE_CURVE ( 'NONE', #229, #712, #225, .T. ) ;
#504 = AXIS2_PLACEMENT_3D ( 'NONE', #206, #263, #317 ) ;
#505 = AXIS2_PLACEMENT_3D ( 'NONE', #477, #361, #791 ) ;
#506 = ORIENTED_EDGE ( 'NONE', *, *, #130, .T. ) ;
#507 = EDGE_CURVE ( 'NONE', #298, #685, #344, .T. ) ;
#508 = ORIENTED_EDGE ( 'NONE', *, *, #589, .T. ) ;
#509 = FACE_OUTER_BOUND ( 'NONE', #542, .T. ) ;
#510 = EDGE_CURVE ( 'NONE', #175, #60, #596, .T. ) ;
#511 = LINE ( 'NONE', #574, #73 ) ;
#512 = ORIENTED_EDGE ( 'NONE', *, *, #507, .F. ) ;
#513 = PLANE ( 'NONE',  #3 ) ;
#514 = AXIS2_PLACEMENT_3D ( 'NONE', #545, #690, #554 ) ;
#515 =( LENGTH_UNIT ( ) NAMED_UNIT ( * ) SI_UNIT ( .MILLI., .METRE. ) );
#516 = CARTESIAN_POINT ( 'NONE',  ( -0.7550000000000002265, 0.5549999999999999378, 0.8000000000000000444 ) ) ;
#517 = ORIENTED_EDGE ( 'NONE', *, *, #77, .F. ) ;
#518 = CARTESIAN_POINT ( 'NONE',  ( -0.7550000000000002265, -0.5550000000000000488, 0.6999999999999999556 ) ) ;
#519 = PLANE ( 'NONE',  #751 ) ;
#520 = FACE_OUTER_BOUND ( 'NONE', #738, .T. ) ;
#521 = DIRECTION ( 'NONE',  ( 0.000000000000000000, 0.000000000000000000, -1.000000000000000000 ) ) ;
#522 = DIRECTION ( 'NONE',  ( -1.000000000000000000, -0.000000000000000000, -0.000000000000000000 ) ) ;
#523 = VECTOR ( 'NONE', #416, 1000.000000000000000 ) ;
#524 = LINE ( 'NONE', #475, #466 ) ;
#525 = DIRECTION ( 'NONE',  ( 1.000000000000000000, 0.000000000000000000, 0.000000000000000000 ) ) ;
#526 =( NAMED_UNIT ( * ) PLANE_ANGLE_UNIT ( ) SI_UNIT ( $, .RADIAN. ) );
#527 = FILL_AREA_STYLE_COLOUR ( '', #543 ) ;
#528 = VECTOR ( 'NONE', #590, 1000.000000000000000 ) ;
#529 = AXIS2_PLACEMENT_3D ( 'NONE', #741, #428, #415 ) ;
#530 = VERTEX_POINT ( 'NONE', #94 ) ;
#531 = CARTESIAN_POINT ( 'NONE',  ( 0.7249999999999998668, 0.6250000000000000000, 0.000000000000000000 ) ) ;
#532 = DIRECTION ( 'NONE',  ( 1.000000000000000000, 0.000000000000000000, 0.000000000000000000 ) ) ;
#533 = VECTOR ( 'NONE', #522, 1000.000000000000000 ) ;
#534 = ORIENTED_EDGE ( 'NONE', *, *, #318, .T. ) ;
#535 = FILL_AREA_STYLE ('',( #527 ) ) ;
#536 = UNCERTAINTY_MEASURE_WITH_UNIT (LENGTH_MEASURE( 1.000000000000000082E-05 ), #515, 'distance_accuracy_value', 'NONE');
#537 = ADVANCED_FACE ( 'NONE', ( #538 ), #37, .T. ) ;
#538 = FACE_OUTER_BOUND ( 'NONE', #314, .T. ) ;
#539 = PLANE ( 'NONE',  #75 ) ;
#540 = DIRECTION ( 'NONE',  ( 0.000000000000000000, 0.000000000000000000, -1.000000000000000000 ) ) ;
#541 = ORIENTED_EDGE ( 'NONE', *, *, #256, .F. ) ;
#542 = EDGE_LOOP ( 'NONE', ( #752, #637, #124, #792 ) ) ;
#543 = COLOUR_RGB ( '',0.9686274509803921573, 0.8784313725490195957, 0.5999999999999999778 ) ;
#544 = CARTESIAN_POINT ( 'NONE',  ( -0.8250000000000000666, 0.6250000000000000000, 0.000000000000000000 ) ) ;
#545 = CARTESIAN_POINT ( 'NONE',  ( -0.8249999999999998446, -0.6250000000000000000, 0.000000000000000000 ) ) ;
#546 = ORIENTED_EDGE ( 'NONE', *, *, #771, .F. ) ;
#547 = PRESENTATION_LAYER_ASSIGNMENT (  '', '', ( #194 ) ) ;
#548 = SHAPE_DEFINITION_REPRESENTATION ( #757, #626 ) ;
#549 = EDGE_CURVE ( 'NONE', #175, #767, #30, .T. ) ;
#550 = DIRECTION ( 'NONE',  ( -0.000000000000000000, -0.000000000000000000, 1.000000000000000000 ) ) ;
#551 = CARTESIAN_POINT ( 'NONE',  ( 0.8250000000000000666, -0.5250000000000000222, 0.000000000000000000 ) ) ;
#552 = VERTEX_POINT ( 'NONE', #411 ) ;
#553 = DIRECTION ( 'NONE',  ( -1.000000000000000000, 0.000000000000000000, 0.000000000000000000 ) ) ;
#554 = DIRECTION ( 'NONE',  ( 1.000000000000000000, 0.000000000000000000, 0.000000000000000000 ) ) ;
#555 = EDGE_LOOP ( 'NONE', ( #508, #653, #113, #646 ) ) ;
#556 = AXIS2_PLACEMENT_3D ( 'NONE', #116, #123, #245 ) ;
#557 = APPLICATION_PROTOCOL_DEFINITION ( 'draft international standard', 'automotive_design', 1998, #276 ) ;
#558 = ORIENTED_EDGE ( 'NONE', *, *, #564, .T. ) ;
#559 = VERTEX_POINT ( 'NONE', #219 ) ;
#560 = AXIS2_PLACEMENT_3D ( 'NONE', #695, #383, #63 ) ;
#561 = EDGE_LOOP ( 'NONE', ( #247, #816, #12, #265 ) ) ;
#562 = AXIS2_PLACEMENT_3D ( 'NONE', #392, #23, #84 ) ;
#563 = PLANE ( 'NONE',  #315 ) ;
#564 = EDGE_CURVE ( 'NONE', #817, #226, #717, .T. ) ;
#565 = VECTOR ( 'NONE', #44, 1000.000000000000000 ) ;
#566 = SURFACE_STYLE_FILL_AREA ( #10 ) ;
#567 = VERTEX_POINT ( 'NONE', #159 ) ;
#568 = DIRECTION ( 'NONE',  ( -0.000000000000000000, -0.000000000000000000, 1.000000000000000000 ) ) ;
#569 = VECTOR ( 'NONE', #486, 1000.000000000000000 ) ;
#570 = AXIS2_PLACEMENT_3D ( 'NONE', #710, #568, #5 ) ;
#571 = ORIENTED_EDGE ( 'NONE', *, *, #179, .T. ) ;
#572 = SURFACE_SIDE_STYLE ('',( #324 ) ) ;
#573 = EDGE_CURVE ( 'NONE', #552, #675, #423, .T. ) ;
#574 = CARTESIAN_POINT ( 'NONE',  ( 0.7550000000000001155, -0.4050000000000000822, 0.8000000000000000444 ) ) ;
#575 =( NAMED_UNIT ( * ) SI_UNIT ( $, .STERADIAN. ) SOLID_ANGLE_UNIT ( ) );
#576 = DIRECTION ( 'NONE',  ( 1.000000000000000000, 0.000000000000000000, 0.000000000000000000 ) ) ;
#577 = LINE ( 'NONE', #677, #528 ) ;
#578 = ORIENTED_EDGE ( 'NONE', *, *, #250, .T. ) ;
#579 = DIRECTION ( 'NONE',  ( -0.000000000000000000, 0.000000000000000000, 1.000000000000000000 ) ) ;
#580 = VERTEX_POINT ( 'NONE', #360 ) ;
#581 =( NAMED_UNIT ( * ) SI_UNIT ( $, .STERADIAN. ) SOLID_ANGLE_UNIT ( ) );
#582 = LINE ( 'NONE', #662, #432 ) ;
#583 = EDGE_CURVE ( 'NONE', #426, #601, #611, .T. ) ;
#584 =( NAMED_UNIT ( * ) SI_UNIT ( $, .STERADIAN. ) SOLID_ANGLE_UNIT ( ) );
#585 = DIRECTION ( 'NONE',  ( 1.000000000000000000, 0.000000000000000000, 0.000000000000000000 ) ) ;
#586 = DIRECTION ( 'NONE',  ( -0.000000000000000000, 0.000000000000000000, 1.000000000000000000 ) ) ;
#587 = CARTESIAN_POINT ( 'NONE',  ( -0.6800000000000002709, -0.4050000000000000822, 0.8000000000000000444 ) ) ;
#588 = CARTESIAN_POINT ( 'NONE',  ( 0.6050000000000003153, 0.4049999999999999711, 0.6999999999999999556 ) ) ;
#589 = EDGE_CURVE ( 'NONE', #463, #129, #228, .T. ) ;
#590 = DIRECTION ( 'NONE',  ( -0.000000000000000000, -0.000000000000000000, 1.000000000000000000 ) ) ;
#591 = CARTESIAN_POINT ( 'NONE',  ( -0.6050000000000003153, -0.4050000000000000822, 0.7900000000000000355 ) ) ;
#592 = LINE ( 'NONE', #162, #281 ) ;
#593 = EDGE_CURVE ( 'NONE', #685, #323, #244, .T. ) ;
#594 = VECTOR ( 'NONE', #419, 1000.000000000000000 ) ;
#595 =( NAMED_UNIT ( * ) SI_UNIT ( $, .STERADIAN. ) SOLID_ANGLE_UNIT ( ) );
#596 = LINE ( 'NONE', #413, #718 ) ;
#597 = EDGE_LOOP ( 'NONE', ( #15, #239, #402, #299 ) ) ;
#598 = LINE ( 'NONE', #481, #121 ) ;
#599 =( NAMED_UNIT ( * ) SI_UNIT ( $, .STERADIAN. ) SOLID_ANGLE_UNIT ( ) );
#600 = EDGE_CURVE ( 'NONE', #712, #169, #592, .T. ) ;
#601 = VERTEX_POINT ( 'NONE', #787 ) ;
#602 = DIRECTION ( 'NONE',  ( -1.000000000000000000, 0.000000000000000000, 0.000000000000000000 ) ) ;
#603 = DIRECTION ( 'NONE',  ( -1.000000000000000000, 0.000000000000000000, 0.000000000000000000 ) ) ;
#604 = DIRECTION ( 'NONE',  ( 1.000000000000000000, 0.000000000000000000, 0.000000000000000000 ) ) ;
#605 = FILL_AREA_STYLE_COLOUR ( '', #222 ) ;
#606 = PRESENTATION_LAYER_ASSIGNMENT (  '', '', ( #209 ) ) ;
#607 = ORIENTED_EDGE ( 'NONE', *, *, #465, .F. ) ;
#608 = PRESENTATION_STYLE_ASSIGNMENT (( #28 ) ) ;
#609 = MECHANICAL_DESIGN_GEOMETRIC_PRESENTATION_REPRESENTATION (  '', ( #651 ), #297 ) ;
#610 = UNCERTAINTY_MEASURE_WITH_UNIT (LENGTH_MEASURE( 1.000000000000000082E-05 ), #617, 'distance_accuracy_value', 'NONE');
#611 = LINE ( 'NONE', #408, #594 ) ;
#612 = FACE_OUTER_BOUND ( 'NONE', #692, .T. ) ;
#613 = DIRECTION ( 'NONE',  ( -0.000000000000000000, -0.000000000000000000, 1.000000000000000000 ) ) ;
#614 = ORIENTED_EDGE ( 'NONE', *, *, #600, .F. ) ;
#615 = ORIENTED_EDGE ( 'NONE', *, *, #271, .T. ) ;
#616 = MECHANICAL_DESIGN_GEOMETRIC_PRESENTATION_REPRESENTATION (  '', ( #148 ), #47 ) ;
#617 =( LENGTH_UNIT ( ) NAMED_UNIT ( * ) SI_UNIT ( .MILLI., .METRE. ) );
#618 = EDGE_CURVE ( 'NONE', #767, #473, #253, .T. ) ;
#619 = SURFACE_STYLE_USAGE ( .BOTH. , #429 ) ;
#620 = CIRCLE ( 'NONE', #504, 0.1499999999999999667 ) ;
#621 = AXIS2_PLACEMENT_3D ( 'NONE', #166, #801, #418 ) ;
#622 = DIRECTION ( 'NONE',  ( 0.000000000000000000, 0.000000000000000000, 1.000000000000000000 ) ) ;
#623 = PRESENTATION_STYLE_ASSIGNMENT (( #197 ) ) ;
#624 = CARTESIAN_POINT ( 'NONE',  ( -0.5300000000000003597, -0.4050000000000000822, 0.8000000000000000444 ) ) ;
#625 = VERTEX_POINT ( 'NONE', #283 ) ;
#626 = ADVANCED_BREP_SHAPE_REPRESENTATION ( 'AVTX-14', ( #642, #190 ), #647 ) ;
#627 = ORIENTED_EDGE ( 'NONE', *, *, #404, .F. ) ;
#628 = ORIENTED_EDGE ( 'NONE', *, *, #452, .F. ) ;
#629 = MECHANICAL_DESIGN_GEOMETRIC_PRESENTATION_REPRESENTATION (  '', ( #673 ), #205 ) ;
#630 = EDGE_LOOP ( 'NONE', ( #272, #790, #135, #811 ) ) ;
#631 = EDGE_LOOP ( 'NONE', ( #133, #443, #43, #68, #125, #340, #680, #487 ) ) ;
#632 = EDGE_CURVE ( 'NONE', #385, #737, #216, .T. ) ;
#633 = FILL_AREA_STYLE_COLOUR ( '', #719 ) ;
#634 = ORIENTED_EDGE ( 'NONE', *, *, #410, .F. ) ;
#635 = DIRECTION ( 'NONE',  ( 0.000000000000000000, 1.000000000000000000, 0.000000000000000000 ) ) ;
#636 = MECHANICAL_DESIGN_GEOMETRIC_PRESENTATION_REPRESENTATION (  '', ( #702 ), #467 ) ;
#637 = ORIENTED_EDGE ( 'NONE', *, *, #660, .T. ) ;
#638 = DIRECTION ( 'NONE',  ( 0.000000000000000000, 0.000000000000000000, 1.000000000000000000 ) ) ;
#639 = VECTOR ( 'NONE', #184, 1000.000000000000000 ) ;
#640 = FACE_BOUND ( 'NONE', #174, .T. ) ;
#641 = VECTOR ( 'NONE', #277, 1000.000000000000000 ) ;
#642 = MANIFOLD_SOLID_BREP ( 'Cut-Extrude2', #357 ) ;
#643 = VECTOR ( 'NONE', #412, 1000.000000000000000 ) ;
#644 = MECHANICAL_DESIGN_GEOMETRIC_PRESENTATION_REPRESENTATION (  '', ( #497 ), #397 ) ;
#645 = CARTESIAN_POINT ( 'NONE',  ( -0.7550000000000002265, -0.4050000000000000822, 0.6999999999999999556 ) ) ;
#646 = ORIENTED_EDGE ( 'NONE', *, *, #380, .T. ) ;
#647 =( GEOMETRIC_REPRESENTATION_CONTEXT ( 3 ) GLOBAL_UNCERTAINTY_ASSIGNED_CONTEXT ( ( #610 ) ) GLOBAL_UNIT_ASSIGNED_CONTEXT ( ( #617, #186, #496 ) ) REPRESENTATION_CONTEXT ( 'NONE', 'WORKASPACE' ) );
#648 = DIRECTION ( 'NONE',  ( 0.000000000000000000, 0.000000000000000000, 1.000000000000000000 ) ) ;
#649 = PRODUCT_DEFINITION_CONTEXT ( 'detailed design', #682, 'design' ) ;
#650 = ORIENTED_EDGE ( 'NONE', *, *, #70, .T. ) ;
#651 = STYLED_ITEM ( 'NONE', ( #608 ), #813 ) ;
#652 = EDGE_CURVE ( 'NONE', #426, #127, #686, .T. ) ;
#653 = ORIENTED_EDGE ( 'NONE', *, *, #714, .T. ) ;
#654 = CARTESIAN_POINT ( 'NONE',  ( -0.8250000000000000666, 0.5250000000000000222, 0.000000000000000000 ) ) ;
#655 = DIRECTION ( 'NONE',  ( -1.734723475976807094E-16, 1.000000000000000000, -0.000000000000000000 ) ) ;
#656 = MECHANICAL_DESIGN_GEOMETRIC_PRESENTATION_REPRESENTATION (  '', ( #194 ), #663 ) ;
#657 = SURFACE_STYLE_FILL_AREA ( #333 ) ;
#658 = EDGE_CURVE ( 'NONE', #567, #693, #582, .T. ) ;
#659 = DIRECTION ( 'NONE',  ( -0.000000000000000000, 0.000000000000000000, -1.000000000000000000 ) ) ;
#660 = EDGE_CURVE ( 'NONE', #127, #60, #464, .T. ) ;
#661 = DIRECTION ( 'NONE',  ( -1.734723475976807094E-16, 1.000000000000000000, 0.000000000000000000 ) ) ;
#662 = CARTESIAN_POINT ( 'NONE',  ( -0.7249999999999998668, -0.6250000000000000000, 0.000000000000000000 ) ) ;
#663 =( GEOMETRIC_REPRESENTATION_CONTEXT ( 3 ) GLOBAL_UNCERTAINTY_ASSIGNED_CONTEXT ( ( #354 ) ) GLOBAL_UNIT_ASSIGNED_CONTEXT ( ( #267, #400, #65 ) ) REPRESENTATION_CONTEXT ( 'NONE', 'WORKASPACE' ) );
#664 = PLANE ( 'NONE',  #500 ) ;
#665 = DIRECTION ( 'NONE',  ( 0.000000000000000000, 0.000000000000000000, -1.000000000000000000 ) ) ;
#666 = EDGE_LOOP ( 'NONE', ( #307, #142, #56, #363 ) ) ;
#667 = DIRECTION ( 'NONE',  ( 1.000000000000000000, 0.000000000000000000, 0.000000000000000000 ) ) ;
#668 = ADVANCED_FACE ( 'NONE', ( #346 ), #519, .F. ) ;
#669 = EDGE_CURVE ( 'NONE', #712, #35, #815, .T. ) ;
#670 = DIRECTION ( 'NONE',  ( 1.000000000000000000, 0.000000000000000000, -0.000000000000000000 ) ) ;
#671 = SURFACE_STYLE_FILL_AREA ( #294 ) ;
#672 = LINE ( 'NONE', #161, #187 ) ;
#673 = STYLED_ITEM ( 'NONE', ( #736 ), #668 ) ;
#674 = CARTESIAN_POINT ( 'NONE',  ( -0.8250000000000000666, 0.6250000000000000000, 0.000000000000000000 ) ) ;
#675 = VERTEX_POINT ( 'NONE', #55 ) ;
#676 = CARTESIAN_POINT ( 'NONE',  ( -0.8249999999999998446, -0.6250000000000000000, 0.000000000000000000 ) ) ;
#677 = CARTESIAN_POINT ( 'NONE',  ( 0.8249999999999998446, 0.5250000000000000222, 0.000000000000000000 ) ) ;
#678 = LINE ( 'NONE', #287, #569 ) ;
#679 = SURFACE_SIDE_STYLE ('',( #17 ) ) ;
#680 = ORIENTED_EDGE ( 'NONE', *, *, #119, .F. ) ;
#681 = ORIENTED_EDGE ( 'NONE', *, *, #773, .T. ) ;
#682 = APPLICATION_CONTEXT ( 'automotive_design' ) ;
#683 = CARTESIAN_POINT ( 'NONE',  ( -0.8250000000000000666, 0.6250000000000000000, 0.6999999999999999556 ) ) ;
#684 = LINE ( 'NONE', #810, #639 ) ;
#685 = VERTEX_POINT ( 'NONE', #624 ) ;
#686 = CIRCLE ( 'NONE', #319, 0.1499999999999999667 ) ;
#687 = CARTESIAN_POINT ( 'NONE',  ( 0.7550000000000001155, 0.5549999999999999378, 0.8000000000000000444 ) ) ;
#688 = ORIENTED_EDGE ( 'NONE', *, *, #380, .F. ) ;
#689 = VECTOR ( 'NONE', #521, 1000.000000000000000 ) ;
#690 = DIRECTION ( 'NONE',  ( 0.000000000000000000, 0.000000000000000000, 1.000000000000000000 ) ) ;
#691 = CIRCLE ( 'NONE', #260, 0.1000000000000000472 ) ;
#692 = EDGE_LOOP ( 'NONE', ( #388, #517, #189, #382 ) ) ;
#693 = VERTEX_POINT ( 'NONE', #814 ) ;
#694 = EDGE_CURVE ( 'NONE', #552, #196, #802, .T. ) ;
#695 = CARTESIAN_POINT ( 'NONE',  ( 0.6050000000000003153, 0.4049999999999999711, 0.8000000000000000444 ) ) ;
#696 = CARTESIAN_POINT ( 'NONE',  ( -0.5300000000000003597, -0.4050000000000000822, 0.7900000000000000355 ) ) ;
#697 = ADVANCED_FACE ( 'NONE', ( #435 ), #110, .F. ) ;
#698 = ORIENTED_EDGE ( 'NONE', *, *, #217, .T. ) ;
#699 = CARTESIAN_POINT ( 'NONE',  ( -0.7550000000000002265, 0.5549999999999999378, 0.8000000000000000444 ) ) ;
#700 = ORIENTED_EDGE ( 'NONE', *, *, #70, .F. ) ;
#701 = LINE ( 'NONE', #384, #257 ) ;
#702 = STYLED_ITEM ( 'NONE', ( #167 ), #642 ) ;
#703 = FACE_OUTER_BOUND ( 'NONE', #369, .T. ) ;
#704 = FILL_AREA_STYLE_COLOUR ( '', #131 ) ;
#705 = DIRECTION ( 'NONE',  ( 1.000000000000000000, 0.000000000000000000, -0.000000000000000000 ) ) ;
#706 = ORIENTED_EDGE ( 'NONE', *, *, #652, .F. ) ;
#707 = FILL_AREA_STYLE ('',( #214 ) ) ;
#708 = PLANE ( 'NONE',  #488 ) ;
#709 = VECTOR ( 'NONE', #185, 1000.000000000000000 ) ;
#710 = CARTESIAN_POINT ( 'NONE',  ( 0.8250000000000000666, -0.6250000000000000000, 0.000000000000000000 ) ) ;
#711 =( LENGTH_UNIT ( ) NAMED_UNIT ( * ) SI_UNIT ( .MILLI., .METRE. ) );
#712 = VERTEX_POINT ( 'NONE', #551 ) ;
#713 = CARTESIAN_POINT ( 'NONE',  ( -0.6050000000000003153, 0.5549999999999999378, 0.8000000000000000444 ) ) ;
#714 = EDGE_CURVE ( 'NONE', #129, #405, #684, .T. ) ;
#715 = AXIS2_PLACEMENT_3D ( 'NONE', #293, #343, #602 ) ;
#716 = SURFACE_STYLE_FILL_AREA ( #707 ) ;
#717 = LINE ( 'NONE', #734, #183 ) ;
#718 = VECTOR ( 'NONE', #794, 1000.000000000000000 ) ;
#719 = COLOUR_RGB ( '',0.9686274509803921573, 0.8784313725490195957, 0.5999999999999999778 ) ;
#720 = DIRECTION ( 'NONE',  ( 1.734723475976807094E-16, -1.000000000000000000, 0.000000000000000000 ) ) ;
#721 = CIRCLE ( 'NONE', #621, 0.07499999999999998335 ) ;
#722 = AXIS2_PLACEMENT_3D ( 'NONE', #79, #779, #264 ) ;
#723 = DIRECTION ( 'NONE',  ( -0.000000000000000000, -0.000000000000000000, 1.000000000000000000 ) ) ;
#724 = UNCERTAINTY_MEASURE_WITH_UNIT (LENGTH_MEASURE( 1.000000000000000082E-05 ), #87, 'distance_accuracy_value', 'NONE');
#725 = CARTESIAN_POINT ( 'NONE',  ( -0.5300000000000003597, -0.4050000000000000822, 0.7900000000000000355 ) ) ;
#726 = EDGE_CURVE ( 'NONE', #35, #580, #57, .T. ) ;
#727 = ORIENTED_EDGE ( 'NONE', *, *, #658, .F. ) ;
#728 = DIRECTION ( 'NONE',  ( -0.000000000000000000, 0.000000000000000000, 1.000000000000000000 ) ) ;
#729 = DIRECTION ( 'NONE',  ( -1.000000000000000000, -0.000000000000000000, -0.000000000000000000 ) ) ;
#730 = DIRECTION ( 'NONE',  ( 1.000000000000000000, 0.000000000000000000, 0.000000000000000000 ) ) ;
#731 = DIRECTION ( 'NONE',  ( 0.000000000000000000, 0.000000000000000000, 1.000000000000000000 ) ) ;
#732 = ORIENTED_EDGE ( 'NONE', *, *, #749, .F. ) ;
#733 = UNCERTAINTY_MEASURE_WITH_UNIT (LENGTH_MEASURE( 1.000000000000000082E-05 ), #300, 'distance_accuracy_value', 'NONE');
#734 = CARTESIAN_POINT ( 'NONE',  ( 0.7550000000000001155, 0.5549999999999999378, 0.8000000000000000444 ) ) ;
#735 = CARTESIAN_POINT ( 'NONE',  ( 0.8249999999999998446, 0.5250000000000000222, 0.000000000000000000 ) ) ;
#736 = PRESENTATION_STYLE_ASSIGNMENT (( #22 ) ) ;
#737 = VERTEX_POINT ( 'NONE', #745 ) ;
#738 = EDGE_LOOP ( 'NONE', ( #628, #379, #650, #335 ) ) ;
#739 = FILL_AREA_STYLE ('',( #105 ) ) ;
#740 = EDGE_CURVE ( 'NONE', #693, #818, #420, .T. ) ;
#741 = CARTESIAN_POINT ( 'NONE',  ( -0.8249999999999998446, -0.6250000000000000000, 0.6999999999999999556 ) ) ;
#742 = SURFACE_STYLE_FILL_AREA ( #242 ) ;
#743 = ORIENTED_EDGE ( 'NONE', *, *, #452, .T. ) ;
#744 =( NAMED_UNIT ( * ) PLANE_ANGLE_UNIT ( ) SI_UNIT ( $, .RADIAN. ) );
#745 = CARTESIAN_POINT ( 'NONE',  ( -0.7250000000000000888, 0.6250000000000000000, 0.000000000000000000 ) ) ;
#746 = EDGE_CURVE ( 'NONE', #405, #483, #352, .T. ) ;
#747 = DIRECTION ( 'NONE',  ( 0.000000000000000000, -1.000000000000000000, 0.000000000000000000 ) ) ;
#748 = AXIS2_PLACEMENT_3D ( 'NONE', #776, #288, #532 ) ;
#749 = EDGE_CURVE ( 'NONE', #601, #226, #494, .T. ) ;
#750 = DIRECTION ( 'NONE',  ( -1.000000000000000000, 0.000000000000000000, 0.000000000000000000 ) ) ;
#751 = AXIS2_PLACEMENT_3D ( 'NONE', #687, #750, #622 ) ;
#752 = ORIENTED_EDGE ( 'NONE', *, *, #404, .T. ) ;
#753 = VECTOR ( 'NONE', #232, 1000.000000000000000 ) ;
#754 = CARTESIAN_POINT ( 'NONE',  ( 0.7550000000000001155, 0.4049999999999999711, 0.8000000000000000444 ) ) ;
#755 = VECTOR ( 'NONE', #795, 1000.000000000000000 ) ;
#756 = ORIENTED_EDGE ( 'NONE', *, *, #583, .F. ) ;
#757 = PRODUCT_DEFINITION_SHAPE ( 'NONE', 'NONE',  #377 ) ;
#758 = ORIENTED_EDGE ( 'NONE', *, *, #652, .T. ) ;
#759 = CIRCLE ( 'NONE', #797, 0.1499999999999999667 ) ;
#760 = ADVANCED_FACE ( 'NONE', ( #238 ), #98, .T. ) ;
#761 = CARTESIAN_POINT ( 'NONE',  ( -0.8249999999999998446, -0.6250000000000000000, 0.000000000000000000 ) ) ;
#762 = CIRCLE ( 'NONE', #305, 0.07499999999999998335 ) ;
#763 = EDGE_LOOP ( 'NONE', ( #578, #414, #258, #421 ) ) ;
#764 = SURFACE_SIDE_STYLE ('',( #566 ) ) ;
#765 = EDGE_LOOP ( 'NONE', ( #798, #458, #541, #85 ) ) ;
#766 =( NAMED_UNIT ( * ) PLANE_ANGLE_UNIT ( ) SI_UNIT ( $, .RADIAN. ) );
#767 = VERTEX_POINT ( 'NONE', #93 ) ;
#768 = DIRECTION ( 'NONE',  ( 0.000000000000000000, -1.000000000000000000, 0.000000000000000000 ) ) ;
#769 = CARTESIAN_POINT ( 'NONE',  ( 0.7550000000000001155, 0.4049999999999999711, 0.8000000000000000444 ) ) ;
#770 = PLANE ( 'NONE',  #78 ) ;
#771 = EDGE_CURVE ( 'NONE', #196, #737, #19, .T. ) ;
#772 =( NAMED_UNIT ( * ) PLANE_ANGLE_UNIT ( ) SI_UNIT ( $, .RADIAN. ) );
#773 = EDGE_CURVE ( 'NONE', #463, #601, #759, .T. ) ;
#774 =( GEOMETRIC_REPRESENTATION_CONTEXT ( 3 ) GLOBAL_UNCERTAINTY_ASSIGNED_CONTEXT ( ( #536 ) ) GLOBAL_UNIT_ASSIGNED_CONTEXT ( ( #515, #766, #581 ) ) REPRESENTATION_CONTEXT ( 'NONE', 'WORKASPACE' ) );
#775 = ORIENTED_EDGE ( 'NONE', *, *, #193, .F. ) ;
#776 = CARTESIAN_POINT ( 'NONE',  ( -0.6050000000000003153, -0.4050000000000000822, 0.6999999999999999556 ) ) ;
#777 = SURFACE_STYLE_USAGE ( .BOTH. , #170 ) ;
#778 = UNCERTAINTY_MEASURE_WITH_UNIT (LENGTH_MEASURE( 1.000000000000000082E-05 ), #407, 'distance_accuracy_value', 'NONE');
#779 = DIRECTION ( 'NONE',  ( -0.000000000000000000, 0.000000000000000000, 1.000000000000000000 ) ) ;
#780 =( NAMED_UNIT ( * ) PLANE_ANGLE_UNIT ( ) SI_UNIT ( $, .RADIAN. ) );
#781 = PRODUCT_RELATED_PRODUCT_CATEGORY ( 'part', '', ( #447 ) ) ;
#782 = PRESENTATION_LAYER_ASSIGNMENT (  '', '', ( #651 ) ) ;
#783 = AXIS2_PLACEMENT_3D ( 'NONE', #40, #731, #478 ) ;
#784 = DIRECTION ( 'NONE',  ( -1.000000000000000000, 0.000000000000000000, 0.000000000000000000 ) ) ;
#785 =( LENGTH_UNIT ( ) NAMED_UNIT ( * ) SI_UNIT ( .MILLI., .METRE. ) );
#786 = FACE_OUTER_BOUND ( 'NONE', #666, .T. ) ;
#787 = CARTESIAN_POINT ( 'NONE',  ( 0.7550000000000001155, 0.4049999999999999711, 0.6999999999999999556 ) ) ;
#788 = CIRCLE ( 'NONE', #722, 0.1499999999999999667 ) ;
#789 = AXIS2_PLACEMENT_3D ( 'NONE', #699, #705, #448 ) ;
#790 = ORIENTED_EDGE ( 'NONE', *, *, #694, .F. ) ;
#791 = DIRECTION ( 'NONE',  ( 1.000000000000000000, 0.000000000000000000, 0.000000000000000000 ) ) ;
#792 = ORIENTED_EDGE ( 'NONE', *, *, #549, .T. ) ;
#793 = DIRECTION ( 'NONE',  ( 1.000000000000000000, 0.000000000000000000, 0.000000000000000000 ) ) ;
#794 = DIRECTION ( 'NONE',  ( 1.000000000000000000, 0.000000000000000000, 0.000000000000000000 ) ) ;
#795 = DIRECTION ( 'NONE',  ( -0.000000000000000000, -0.000000000000000000, 1.000000000000000000 ) ) ;
#796 = DIRECTION ( 'NONE',  ( 1.000000000000000000, 0.000000000000000000, 0.000000000000000000 ) ) ;
#797 = AXIS2_PLACEMENT_3D ( 'NONE', #588, #353, #793 ) ;
#798 = ORIENTED_EDGE ( 'NONE', *, *, #746, .F. ) ;
#799 = ORIENTED_EDGE ( 'NONE', *, *, #410, .T. ) ;
#800 = ADVANCED_FACE ( 'NONE', ( #236 ), #485, .F. ) ;
#801 = DIRECTION ( 'NONE',  ( 0.000000000000000000, 0.000000000000000000, 1.000000000000000000 ) ) ;
#802 = LINE ( 'NONE', #309, #268 ) ;
#803 = ORIENTED_EDGE ( 'NONE', *, *, #669, .T. ) ;
#804 = DIRECTION ( 'NONE',  ( 1.000000000000000000, 0.000000000000000000, 0.000000000000000000 ) ) ;
#805 = EDGE_CURVE ( 'NONE', #818, #559, #524, .T. ) ;
#806 = DIRECTION ( 'NONE',  ( 0.000000000000000000, 0.000000000000000000, -1.000000000000000000 ) ) ;
#807 = CARTESIAN_POINT ( 'NONE',  ( 0.6050000000000003153, -0.5550000000000000488, 0.8000000000000000444 ) ) ;
#808 = MECHANICAL_DESIGN_GEOMETRIC_PRESENTATION_REPRESENTATION (  '', ( #449 ), #38 ) ;
#809 = ADVANCED_FACE ( 'NONE', ( #36 ), #223, .T. ) ;
#810 = CARTESIAN_POINT ( 'NONE',  ( -0.6050000000000003153, 0.5549999999999999378, 0.8000000000000000444 ) ) ;
#811 = ORIENTED_EDGE ( 'NONE', *, *, #499, .F. ) ;
#812 = ADVANCED_FACE ( 'NONE', ( #218 ), #664, .T. ) ;
#813 = ADVANCED_FACE ( 'NONE', ( #427 ), #158, .T. ) ;
#814 = CARTESIAN_POINT ( 'NONE',  ( -0.7249999999999998668, -0.6250000000000000000, 0.000000000000000000 ) ) ;
#815 = CIRCLE ( 'NONE', #99, 0.1000000000000000472 ) ;
#816 = ORIENTED_EDGE ( 'NONE', *, *, #694, .T. ) ;
#817 = VERTEX_POINT ( 'NONE', #181 ) ;
#818 = VERTEX_POINT ( 'NONE', #59 ) ;
#819 = MECHANICAL_DESIGN_GEOMETRIC_PRESENTATION_REPRESENTATION (  '', ( #209 ), #774 ) ;
#820 = ORIENTED_EDGE ( 'NONE', *, *, #749, .T. ) ;
#821 = DIRECTION ( 'NONE',  ( 1.000000000000000000, 0.000000000000000000, 0.000000000000000000 ) ) ;
#822 = SURFACE_STYLE_USAGE ( .BOTH. , #572 ) ;
#823 = PRESENTATION_LAYER_ASSIGNMENT (  '', '', ( #148 ) ) ;
#824 = AXIS2_PLACEMENT_3D ( 'NONE', #156, #472, #603 ) ;
ENDSEC;
END-ISO-10303-21;
